<svg xmlns="http://www.w3.org/2000/svg" xmlns:xlink="http://www.w3.org/1999/xlink" xml:space="preserve" version="1.1" style="shape-rendering:geometricPrecision;text-rendering:geometricPrecision;image-rendering:optimizeQuality;" viewBox="0 0 100 125" x="0px" y="0px" fill-rule="evenodd" clip-rule="evenodd"><defs><style type="text/css">
   
    .fil0 {fill:black}
   
  </style></defs><g><path class="fil0" d="M45.49 90.15c-8.09,-0.79 -15.47,-3.98 -21.44,-8.84 5.36,-6.15 12.91,-10.33 21.44,-11.33l0 20.17zm-27.21 -14.61c-4.86,-5.97 -8.05,-13.35 -8.84,-21.44l20.17 0c-1,8.53 -5.18,16.08 -11.33,21.44zm17.71 -21.44l5.74 0 0 3.76 3.76 0 0 5.74c-4.66,0.46 -9.08,1.71 -13.13,3.63 1.92,-4.05 3.17,-8.47 3.63,-13.13zm21.16 0l5.75 0c0.45,4.66 1.71,9.08 3.62,13.13 -4.04,-1.92 -8.47,-3.17 -13.12,-3.63l0 -5.74 3.75 0 0 -3.76zm12.12 0l20.17 0c-0.79,8.09 -3.97,15.47 -8.84,21.44 -6.14,-5.36 -10.33,-12.91 -11.33,-21.44zm5.56 27.21c-5.96,4.86 -13.34,8.05 -21.43,8.84l0 -20.17c8.52,1 16.08,5.18 21.43,11.33zm-65.39 -35.12c0.79,-8.08 3.98,-15.47 8.84,-21.43 6.15,5.35 10.33,12.91 11.33,21.43l-20.17 0zm22.92 -13.12c4.05,1.91 8.47,3.17 13.13,3.62l0 5.75 -3.76 0 0 3.75 -5.74 0c-0.46,-4.65 -1.71,-9.07 -3.63,-13.12zm-8.31 -14.08c5.97,-4.87 13.35,-8.05 21.44,-8.84l0 20.17c-8.53,-1 -16.08,-5.18 -21.44,-11.33zm29.35 -8.84c8.09,0.79 15.47,3.97 21.43,8.84 -5.35,6.15 -12.91,10.33 -21.43,11.33l0 -20.17zm27.2 14.61c4.87,5.96 8.05,13.35 8.84,21.43l-20.17 0c1,-8.52 5.18,-16.08 11.33,-21.43zm-17.7 21.43l-5.75 0 0 -3.75 -3.75 0 0 -5.75c4.66,-0.45 9.08,-1.71 13.12,-3.62 -1.91,4.05 -3.17,8.47 -3.62,13.12z"/></g></svg>