<svg xmlns="http://www.w3.org/2000/svg" width="3rem" height="3rem" fill="currentColor" stroke="currentColor" stroke-width="0" viewBox="0 0 24 24"><path fill="#FFF" stroke="none" d="M20.23 15.8a.67.67 0 0 0 .24-.25.67.67 0 0 0 .1-.33v-3.86a.67.67 0 0 1 .1-.33.67.67 0 0 1 .24-.25L23 9.58a.67.67 0 0 1 .33-.09.67.67 0 0 1 .34.1.67.67 0 0 1 .24.24.67.67 0 0 1 .09.33v7.01a.67.67 0 0 1-.34.58l-7.89 4.53a.67.67 0 0 1-.66 0l-6.2-3.54a.67.67 0 0 1-.24-.24.67.67 0 0 1-.1-.34v-3.53h.02v-.02l5.11-2.93V8.19a.67.67 0 0 0-.33-.58.67.67 0 0 0-.67 0L8.91 9.8a.67.67 0 0 1-.66 0l-3.8-2.2a.67.67 0 0 0-1 .59v6.26a.67.67 0 0 1-.34.58.67.67 0 0 1-.33.09.67.67 0 0 1-.33-.09l-2.11-1.2a.67.67 0 0 1-.25-.25.67.67 0 0 1-.09-.34L.02 2.3a.67.67 0 0 1 1-.58l7.23 4.16a.67.67 0 0 0 .66 0l7.23-4.16a.67.67 0 0 1 .33-.08.67.67 0 0 1 .34.09.67.67 0 0 1 .24.24.67.67 0 0 1 .09.33v10.96c0 .12-.03.23-.1.33a.67.67 0 0 1-.24.25L13.02 16a.67.67 0 0 0-.25.24.67.67 0 0 0-.09.34.67.67 0 0 0 .1.33.67.67 0 0 0 .24.24l2.09 1.2a.67.67 0 0 0 .33.08.67.67 0 0 0 .33-.09l4.46-2.56Zm.44-9.84a.67.67 0 0 0 .09.34.67.67 0 0 0 .24.24.67.67 0 0 0 .67 0l2-1.2a.67.67 0 0 0 .24-.25.67.67 0 0 0 .09-.33V2.32a.67.67 0 0 0-.1-.34.67.67 0 0 0-.57-.33.67.67 0 0 0-.34.1l-2 1.2a.67.67 0 0 0-.24.24.67.67 0 0 0-.08.33v2.45Z"/></svg>