<svg xmlns="http://www.w3.org/2000/svg" width="3rem" height="3rem" fill="none" stroke="currentColor" stroke-linecap="round" stroke-linejoin="round" stroke-width="2" viewBox="0 0 24 24"><path stroke="none" d="M0 0h24v24H0z"/><path stroke="#FFF" d="M16.54 7C15.74 4.63 14 3 12 3 9.23 3 6.98 5.63 6.98 9.5c0 1.95 1.58 4.72 2.5 6"/><path stroke="#FFF" d="M4.71 11.98c-1.65 1.88-2.21 4.18-1.21 5.91 1.39 2.39 5.14 2.83 8.5.9 1.7-.98 2.88-3.36 3.52-4.8"/><path stroke="#FFF" d="M15.01 19.99c2.51 0 4.53-.44 5.5-2.1 1.38-2.39-.22-5.9-3.59-7.82C15.22 9.09 12.56 8.83 11 9"/><path stroke="#FFF" d="M10.5 9.86a1 1 0 0 0 1.37-.36 1 1 0 0 0-.37-1.37 1 1 0 0 0-1.37.37 1 1 0 0 0 .36 1.36zM8.5 15.5a1 1 0 1 0 2 0 1 1 0 1 0-2 0M14.5 14a1 1 0 1 0 2 0 1 1 0 1 0-2 0"/></svg>