<svg xmlns="http://www.w3.org/2000/svg" width="3rem" height="3rem" fill="currentColor" stroke="currentColor" stroke-width="0" viewBox="0 0 24 24"><path fill="#FFF" stroke="none" d="M12 4.8c-3.2 0-5.2 1.6-6 4.8C7.2 8 8.6 7.4 10.2 7.8c.91.23 1.57.89 2.29 1.62C13.67 10.62 15.03 12 18 12c3.2 0 5.2-1.6 6-4.8-1.2 1.6-2.6 2.2-4.2 1.8-.91-.23-1.56-.89-2.29-1.62-1.17-1.2-2.53-2.58-5.5-2.58zM6 12c-3.2 0-5.2 1.6-6 4.8 1.2-1.6 2.6-2.2 4.2-1.8.91.23 1.57.89 2.29 1.62 1.18 1.2 2.54 2.58 5.51 2.58 3.2 0 5.2-1.6 6-4.8-1.2 1.6-2.6 2.2-4.2 1.8-.91-.23-1.56-.89-2.29-1.62-1.17-1.2-2.53-2.58-5.5-2.58z"/></svg>